<?xml version="1.0" encoding="UTF-8"?>
<!DOCTYPE svg PUBLIC "-//W3C//DTD SVG 1.1//EN" "http://www.w3.org/Graphics/SVG/1.1/DTD/svg11.dtd">
<!-- Creator: CorelDRAW X6 -->
<svg xmlns="http://www.w3.org/2000/svg" xml:space="preserve" width="609mm" height="304mm" version="1.1" style="shape-rendering:geometricPrecision; text-rendering:geometricPrecision; image-rendering:optimizeQuality; fill-rule:evenodd; clip-rule:evenodd"
viewBox="0 0 60900 30400"
 xmlns:xlink="http://www.w3.org/1999/xlink">
 <defs>
  <style type="text/css">
   <![CDATA[
    .str0 {stroke:black;stroke-width:7.62}
    .fil0 {fill:none}
   ]]>
  </style>
 </defs>
 <g id="Ebene_x0020_1">
  <metadata id="CorelCorpID_0Corel-Layer"/>
  <path id="Links_x002f_Rechts" class="fil0 str0" d="M7477 2544l1 -1456c2948,0 2369,-1 5317,-4l0 -300 1000 0 0 300 350 0 0 285 -120 0 0 230 120 0 0 385 310 0 0 -385 120 0 0 -230 -120 0 0 -285 340 0 0 -300 1000 0 0 300 5343 0 0 1460 -300 0 0 1000 300 0 0 1000 -300 0 0 1000 300 0 0 1399 -5333 0 0 300 -1000 0 0 -300 -350 0 0 -285 120 0 0 -230 -120 0 0 -385 -310 0 0 385 -120 0 0 230 120 0 0 285 -340 0 0 300 -1000 0 0 -300 -5328 0 0 -1399 300 0 0 -1000 -300 0 0 -1000 300 0 0 -1000 -300 0zm176 1655c85,0 154,-70 154,-155 0,-86 -69,-155 -154,-155 -86,0 -156,69 -156,155 0,85 70,155 156,155zm13155 -155c0,85 69,155 155,155 86,0 155,-70 155,-155 0,-86 -69,-155 -155,-155 -86,0 -155,69 -155,155z"/>
  <path id="Deckel_x002f_Boden" class="fil0 str0" d="M12805 18024l-5328 0 0 -3723 300 0 0 -1000 -300 0 0 -1000 300 0 0 -1000 -300 0 0 -3723 5328 0 0 300 1000 0 0 -300 340 0 320 0 340 0 0 300 1000 0 0 -300 5333 0 0 3723 -300 0 0 1000 300 0 0 1000 -300 0 0 1000 300 0 0 3723 -5333 0 0 -300 -1000 0 0 300 -340 0c-228,0 -91,0 -320,0 -71,0 -177,0 -340,0l0 -300 -1000 0 0 300zm8158 -5378c-86,0 -155,69 -155,155 0,85 69,155 155,155 86,0 155,-70 155,-155 0,-86 -69,-155 -155,-155zm-6503 5200c0,-85 -69,-155 -155,-155 -85,0 -155,70 -155,155 0,86 70,155 155,155 86,0 155,-69 155,-155zm-6653 -5045c0,-86 -69,-155 -155,-155 -85,0 -155,69 -155,155 0,85 70,155 155,155 86,0 155,-70 155,-155zm6498 -4882c86,0 155,-70 155,-155 0,-86 -69,-155 -155,-155 -85,0 -155,69 -155,155 0,85 70,155 155,155z"/>
  <path id="Vorne_x002f_Hinten" class="fil0 str0" d="M23189 7881l0 -300 1000 0 0 300 340 0 0 285 -120 0 0 230 120 0 0 385 310 0 0 -385 120 0 0 -230 -120 0 0 -285 350 0 0 -300 1000 0 0 300 1417 0 0 3423 300 0 0 1000 -300 0 0 340 -285 0 0 -120 -230 0 0 120 -385 0 0 310 385 0 0 120 230 0 0 -120 285 0 0 350 300 0 0 1000 -300 0 0 3424 -1427 -2 0 294 -1000 0 0 -292 -340 0 0 -285 120 0 0 -230 -120 0 0 -385 -310 0 0 385 -120 0 0 230 120 0 0 285 -350 0 0 300 -1000 0 0 -300 -1436 1 0 -3424 -300 0 0 -1000 300 0 0 -340 285 0 0 120 230 0 0 -120 385 0 0 -310 -385 0 0 -120 -230 0 0 120 -285 0 0 -350 -300 0 0 -1000 300 0 0 -3423c1518,0 -310,-1 1446,-1z"/>
  <path id="Links_x002f_Rechts_0" class="fil0 str0" d="M7477 20053l1 -1456c2948,0 2369,-1 5317,-4l0 -300 1000 0 0 300 350 0 0 285 -120 0 0 230 120 0 0 385 310 0 0 -385 120 0 0 -230 -120 0 0 -285 340 0 0 -300 1000 0 0 300 5343 0 0 1460 -300 0 0 1000 300 0 0 1000 -300 0 0 1000 300 0 0 1400 -5333 0 0 300 -1000 0 0 -300 -350 -1 0 -285 120 0 0 -230 -120 0 0 -385 -310 0 0 385 -120 0 0 230 120 0 0 285 -340 1 0 300 -1000 0 0 -300 -5328 0 0 -1400 300 0 0 -1000 -300 0 0 -1000 300 0 0 -1000 -300 0zm176 1655c85,0 154,-69 154,-155 0,-86 -69,-155 -154,-155 -86,0 -156,70 -156,155 0,86 70,155 156,155zm13155 -155c0,86 69,155 155,155 86,0 155,-69 155,-155 0,-86 -69,-155 -155,-155 -86,0 -155,70 -155,155z"/>
  <path id="Deckel_x002f_Boden_1" class="fil0 str0" d="M33461 18024l-5328 0 0 -3723 300 0 0 -1000 -300 0 0 -1000 300 0 0 -1000 -300 0 0 -3723 5328 0 0 300 1000 0 0 -300 340 0 320 0 340 0 0 300 1000 0 0 -300 5332 0 0 3723 -300 0 0 1000 300 0 0 1000 -300 0 0 1000 300 0 0 3723 -5332 0 0 -300 -1000 0 0 300 -340 0c-229,0 -92,0 -320,0 -71,0 -177,0 -340,0l0 -300 -1000 0 0 300zm8157 -5378c-85,0 -155,69 -155,155 0,85 70,155 155,155 86,0 155,-70 155,-155 0,-86 -69,-155 -155,-155zm-6502 5200c0,-85 -70,-155 -155,-155 -86,0 -155,70 -155,155 0,86 69,155 155,155 85,0 155,-69 155,-155zm-6653 -5045c0,-86 -70,-155 -155,-155 -86,0 -155,69 -155,155 0,85 69,155 155,155 85,0 155,-70 155,-155zm6498 -4882c85,0 155,-70 155,-155 0,-86 -70,-155 -155,-155 -86,0 -155,69 -155,155 0,85 69,155 155,155z"/>
  <path id="Vorne_x002f_Hinten_2" class="fil0 str0" d="M2663 7881l0 -300 1000 0 0 300 340 0 0 285 -120 0 0 230 120 0 0 385 310 0 0 -385 120 0 0 -230 -120 0 0 -285 350 0 0 -300 1000 0 0 300 1417 0 0 3423 300 0 0 1000 -300 0 0 340 -285 0 0 -120 -230 0 0 120 -385 0 0 310 385 0 0 120 230 0 0 -120 285 0 0 350 300 0 0 1000 -300 0 0 3424 -1427 -2 0 294 -1000 0 0 -292 -340 0 0 -285 120 0 0 -230 -120 0 0 -385 -310 0 0 385 -120 0 0 230 120 0 0 285 -350 0 0 300 -1000 0 0 -300 -1436 1 0 -3424 -300 0 0 -1000 300 0 0 -340 285 0 0 120 230 0 0 -120 385 0 0 -310 -385 0 0 -120 -230 0 0 120 -285 0 0 -350 -300 0 0 -1000 300 0 0 -3423c1518,0 -310,-1 1446,-1z"/>
 </g>
</svg>
